<svg xmlns="http://www.w3.org/2000/svg" xmlns:xlink="http://www.w3.org/1999/xlink" version="1.1" preserveAspectRatio="xMidYMid meet" viewBox="16.72 150.92 677.54 47.59"><defs><path d="M17.22 156.56L628.74 156.56L628.74 198.01L17.22 198.01L17.22 156.56Z" id="d2dNIBBzp"/><path d="M28.3 164.96L601.51 164.96L601.51 191.19L28.3 191.19L28.3 164.96Z" id="cY1zsxO6X"/><path d="M28.3 164.96L601.51 164.96L601.51 191.19L28.3 191.19L28.3 164.96Z" id="i1O0kijMei"/><path d="M28.3 164.96L132.37 164.96L132.37 191.19L28.3 191.19L28.3 164.96Z" id="a1Rq5ezoYM"/><path d="M28.3 164.96L132.37 164.96L132.37 191.19L28.3 191.19L28.3 164.96Z" id="azighp9VL"/><path d="M132.69 164.96L236.75 164.96L236.75 191.19L132.69 191.19L132.69 164.96Z" id="a3eRWlIKN2"/><path d="M132.69 164.96L236.75 164.96L236.75 191.19L132.69 191.19L132.69 164.96Z" id="b1jH1yvpp"/><path d="M236.82 164.96L418.91 164.96L418.91 191.19L236.82 191.19L236.82 164.96Z" id="koVfGPXGF"/><path d="M236.82 164.96L418.91 164.96L418.91 191.19L236.82 191.19L236.82 164.96Z" id="ha8FdvUnz"/><path d="M275.83 165.15L379.89 165.15L379.89 191L275.83 191L275.83 165.15Z" id="b8XQ5BvI"/><path d="M304.96 175.15C304.81 174.82 304.72 174.78 304.69 174.74C304.58 174.69 304.2 174.7 304.15 174.69C303.4 174.69 302.64 175.73 302.47 175.85C301.22 177.4 301.34 178.49 301.22 178.78C301.22 179.46 301.61 179.82 301.66 179.94C302.09 180.44 302.61 180.39 302.72 180.44C303.26 180.44 303.69 180.2 303.8 180.17C304.11 180.01 304.64 179.62 304.73 179.56C305.02 179.34 305.13 179.36 305.18 179.34C305.4 179.34 305.51 179.49 305.54 179.5C305.7 179.67 305.68 179.84 305.7 179.88C305.7 180.12 305.52 180.25 305.5 180.29C304.13 181.51 303 181.39 302.72 181.51C301.65 181.51 301.08 180.76 300.9 180.68C300.18 179.88 300.25 178.97 300.18 178.78C300.18 177.02 301.51 175.53 301.66 175.17C302.9 173.62 303.9 173.77 304.15 173.62C304.41 173.62 304.56 173.65 304.61 173.65C304.81 173.67 304.93 173.71 304.97 173.72C305.15 173.45 305.39 173.48 305.44 173.45C305.8 173.45 305.85 173.88 305.9 173.93C305.98 174.35 305.97 174.86 305.98 174.96C305.98 175.18 305.88 175.3 305.87 175.34C305.77 175.48 305.63 175.54 305.46 175.54C305.16 175.31 304.99 175.18 304.96 175.15ZM310.74 181.32C310.62 180.89 310.54 180.22 310.52 180.1C310.43 179.35 310.44 178.98 310.43 178.86C310.43 178.72 310.44 178.49 310.44 178.45C310.45 178.17 310.45 178.08 310.45 178.03C310.45 177.06 310.01 177.15 309.96 177.06C309.3 177.06 308.9 177.6 308.78 177.66C308.51 177.96 308.13 178.71 308.05 178.83C308.05 180.82 307.9 180.94 307.89 181.18C307.74 181.5 307.47 181.47 307.43 181.5C307.22 181.5 307.09 181.37 307.05 181.36C306.9 181.21 306.91 181.04 306.9 181C306.9 180.93 306.93 180.8 306.94 180.77C306.97 180.68 306.99 180.43 307 180.01L307.01 179.24C307.02 176.94 307.03 175.66 307.03 175.41C307.06 174.76 307.06 174.63 307.06 174.54C307.06 174.27 307.02 174.09 307.01 174.04C306.97 173.81 306.97 173.59 306.97 173.54C306.97 173.33 307.1 173.23 307.12 173.19C307.27 173.04 307.45 173.06 307.49 173.04C307.92 173.04 307.94 173.46 307.99 173.5C308.07 174 308.07 174.32 308.07 174.41C308.07 174.96 308.04 175.44 308.03 175.56C308.01 175.93 308 176.31 308.01 176.69C308.01 176.97 308.01 177.12 308.01 177.15C308.44 176.58 308.84 176.38 308.93 176.29C309.42 176.01 309.86 176.04 309.96 176.01C310.82 176.01 311.03 176.52 311.15 176.58C311.3 176.84 311.39 177.28 311.41 177.91L311.45 178.9C311.51 179.55 311.55 179.91 311.55 179.98C311.63 180.6 311.71 180.95 311.73 181.06C311.75 181.15 311.75 181.2 311.75 181.21C311.75 181.43 311.61 181.53 311.59 181.57C311.49 181.66 311.37 181.71 311.22 181.71C310.93 181.47 310.77 181.34 310.74 181.32ZM317.28 179.47C317.29 180.22 317.29 180.48 317.29 180.6C317.29 180.71 317.3 180.92 317.3 180.95C317.32 181.18 317.32 181.26 317.32 181.29C317.32 181.52 317.18 181.62 317.16 181.66C317.02 181.81 316.83 181.79 316.8 181.81C316.4 181.81 316.34 181.36 316.29 181.31C315.64 181.65 314.94 181.61 314.79 181.65C314.11 181.65 313.77 181.38 313.66 181.35C313.16 181.01 313.13 180.47 313.07 180.37C312.87 178.99 312.89 178.16 312.87 177.91C312.87 177.2 313.01 176.45 313.03 176.28C313.1 175.84 313.47 175.88 313.52 175.84C313.75 175.84 313.85 175.97 313.89 175.98C314.05 176.12 314.03 176.31 314.05 176.35C314.05 176.59 313.97 177.04 313.96 177.12C313.89 177.64 313.9 177.83 313.89 177.91C313.89 178.78 313.94 179.26 313.94 179.41C314.01 180.02 314.1 180.3 314.12 180.4C314.3 180.49 314.43 180.53 314.46 180.54C314.63 180.59 314.76 180.58 314.79 180.59C315.25 180.59 315.75 180.51 316.27 180.37L316.26 179.31C316.25 178.7 316.25 178.36 316.25 178.29C316.25 177.17 316.34 176.54 316.35 176.35C316.4 175.87 316.8 175.92 316.85 175.87C317.08 175.87 317.19 176 317.22 176.01C317.33 176.11 317.38 176.23 317.37 176.38L317.28 178.35C317.28 179.02 317.28 179.4 317.28 179.47ZM322.06 181.26C321.98 180.58 321.93 180.2 321.92 180.13C321.84 179.51 321.85 179.1 321.84 178.98C321.84 178.84 321.85 178.54 321.86 178.49C321.88 178.14 321.87 178.04 321.88 177.99C321.88 176.87 321.5 176.98 321.46 176.87C320.88 176.87 320.46 177.5 320.34 177.57C319.87 178.19 319.67 179 319.59 179.16C319.58 179.36 319.56 179.62 319.55 179.67C319.52 179.93 319.52 180.12 319.52 180.17C319.52 180.33 319.55 180.59 319.55 180.64C319.58 180.95 319.58 181.06 319.58 181.11C319.58 181.35 319.45 181.45 319.44 181.49C319.29 181.64 319.11 181.62 319.07 181.64C318.84 181.64 318.74 181.51 318.7 181.49C318.56 181.35 318.58 181.15 318.56 181.11C318.56 180.95 318.53 180.69 318.52 180.64C318.49 180.33 318.49 180.22 318.49 180.17C318.49 179.64 318.56 178.84 318.56 178.69C318.65 177.73 318.64 177.35 318.65 177.2C318.65 177.03 318.63 176.76 318.63 176.71C318.61 176.38 318.61 176.26 318.61 176.21C318.61 175.98 318.74 175.88 318.75 175.85C318.91 175.7 319.09 175.72 319.13 175.7C319.45 175.7 319.62 175.93 319.65 176.38C319.66 176.74 319.67 176.94 319.67 176.98C320.54 175.82 321.28 175.93 321.46 175.82C322.29 175.82 322.51 176.48 322.63 176.56C322.77 176.88 322.85 177.36 322.87 178L322.87 178.52C322.87 178.82 322.87 178.98 322.87 179.01C322.87 179.44 322.96 180.02 322.97 180.13C323.08 180.82 323.07 181.13 323.08 181.24C323.08 181.47 322.95 181.58 322.94 181.62C322.84 181.71 322.72 181.76 322.56 181.76L322.06 181.26ZM328.05 181.29C327.87 180.95 327.6 180.53 327.23 180.06C326.68 179.3 326.37 178.88 326.31 178.79C326.01 179.03 325.47 179.4 325.38 179.47C325.31 180.27 325.32 180.89 325.31 181.04C325.31 181.27 325.18 181.38 325.17 181.42C325.03 181.58 324.84 181.56 324.8 181.58C324.28 181.58 324.33 180.93 324.28 180.86C324.28 180.43 324.33 179.69 324.33 179.57C324.4 178.7 324.39 178.4 324.4 178.27C324.4 177.48 324.42 176.64 324.42 176.46C324.45 175.44 324.45 174.84 324.45 174.66C324.45 174.43 324.42 174.17 324.42 174.12C324.4 173.79 324.4 173.61 324.4 173.56C324.4 173.33 324.53 173.22 324.54 173.18C324.69 173.03 324.87 173.05 324.91 173.03C325.14 173.03 325.24 173.17 325.27 173.18C325.42 173.33 325.4 173.52 325.42 173.56C325.42 173.79 325.44 174.07 325.44 174.13C325.46 174.34 325.47 174.53 325.47 174.69C325.45 175.7 325.44 176.26 325.44 176.37C325.41 177.27 325.42 178 325.42 178.18C325.89 177.82 326.34 177.42 326.78 176.99C327.47 176.28 327.85 175.88 327.93 175.81C328.11 175.63 328.27 175.65 328.3 175.63C328.5 175.63 328.63 175.78 328.67 175.79C328.83 175.95 328.82 176.13 328.83 176.17C328.83 176.35 328.69 176.48 328.68 176.51C328.25 177.01 327.73 177.55 327.11 178.13C327.79 179.05 328.16 179.57 328.24 179.67C329.03 180.76 328.95 180.94 329.03 181.09C329.03 181.29 328.88 181.41 328.87 181.45C328.76 181.56 328.64 181.61 328.49 181.61C328.23 181.42 328.08 181.32 328.05 181.29ZM335.67 181.91C335.28 181.91 334.88 181.8 334.79 181.78C334.4 181.69 334.11 181.57 333.91 181.42C333.88 181.42 333.86 181.42 333.86 181.42C333.64 181.42 333.52 181.28 333.48 181.26C333.33 181.11 333.35 180.92 333.33 180.88C333.33 180.34 333.37 179.41 333.38 179.24C333.43 178.15 333.42 177.77 333.43 177.61C333.43 176.99 333.41 175.97 333.41 175.78C333.39 174.58 333.39 174.14 333.39 173.96C333.39 173.75 333.58 173.57 333.61 173.52C333.82 173.28 334 173.31 334.04 173.28C334.17 173.28 334.79 173.59 334.88 173.63C335.68 174.02 335.71 174.02 335.8 174.07C337.28 174.57 338.07 175.46 338.32 175.62C339.54 176.85 339.42 178.06 339.54 178.33C339.54 179.22 339.17 179.87 339.13 180.04C338.85 180.59 338.47 181.02 337.98 181.35C336.59 181.68 335.82 181.87 335.67 181.91ZM334.44 174.64L334.46 176.14L334.48 177.64C334.43 179.34 334.4 180.29 334.4 180.48C334.43 180.49 334.49 180.54 334.5 180.54C334.96 180.86 335.54 180.83 335.66 180.86C336.84 180.86 337.21 180.53 337.39 180.49C337.9 180.15 338.11 179.66 338.19 179.57C338.49 178.98 338.46 178.48 338.49 178.36C338.49 177.38 337.96 176.54 336.89 175.84L334.44 174.64ZM344.51 181.5C344.27 181.28 344.19 181.16 344.16 181.12C343.66 181.4 343.36 181.49 343.27 181.53C342.9 181.67 342.71 181.66 342.65 181.67C341.43 181.67 341.04 181.05 340.87 180.98C340.34 180.34 340.4 179.2 340.34 179C340.34 177.74 341.12 177.06 341.21 176.85C342.07 175.95 343.07 176.04 343.28 175.95C343.73 175.95 344.19 176.16 344.29 176.18C345 176.47 344.93 176.82 345 176.89C345 177.02 344.91 177.11 344.9 177.14C344.84 177.34 344.82 177.73 344.81 177.79C344.79 178.24 344.79 178.84 344.78 178.95C344.78 179.6 344.87 179.87 344.88 179.97C344.93 180.2 345.17 180.8 345.2 180.89C345.23 180.95 345.27 181.04 345.32 181.16C345.34 181.22 345.35 181.25 345.36 181.25C345.36 181.46 345.22 181.56 345.21 181.6C345.11 181.69 345 181.73 344.87 181.73C344.65 181.59 344.53 181.52 344.51 181.5ZM343.81 177.63C343.84 177.36 343.89 177.12 343.9 177.07C343.71 176.96 343.6 176.93 343.56 176.92C343.43 176.87 343.37 176.87 343.34 176.87C342.54 176.87 342.09 177.47 341.95 177.53C341.37 178.19 341.42 178.89 341.37 179.04C341.37 179.9 341.64 180.2 341.67 180.33C341.97 180.75 342.48 180.71 342.57 180.75C343.07 180.75 343.34 180.59 343.43 180.58C343.62 180.47 343.9 180.22 343.95 180.18C343.84 179.26 343.78 178.57 343.78 178.11C343.8 177.82 343.81 177.66 343.81 177.63ZM349.48 176.94C349.33 176.93 349.26 176.93 349.23 176.93C349.15 176.93 348.91 176.95 348.52 177L348.62 180.09L348.63 180.32C348.63 180.47 348.63 180.56 348.63 180.58C348.65 181.72 348.14 181.61 348.08 181.72C347.88 181.72 347.76 181.6 347.72 181.59C347.56 181.45 347.58 181.28 347.56 181.24C347.56 181.04 347.57 180.71 347.57 180.65C347.59 180.38 347.59 180.19 347.59 180.06C347.53 178.23 347.5 177.22 347.49 177.01C347.12 177 346.45 176.94 346.33 176.93C345.88 176.87 345.92 176.46 345.88 176.41C345.88 176.18 346 176.07 346.01 176.03C346.11 175.93 346.23 175.88 346.38 175.88C347.03 175.93 347.4 175.97 347.47 175.97C347.47 175.7 347.44 175.33 347.44 175.26C347.42 174.82 347.42 174.68 347.42 174.62C347.42 174.4 347.55 174.29 347.56 174.25C347.72 174.11 347.9 174.12 347.94 174.11C348.41 174.11 348.44 174.8 348.49 174.88C348.5 175 348.5 175.16 348.5 175.34L348.49 175.64C348.49 175.83 348.49 175.94 348.49 175.96C349.14 175.88 349.16 175.89 349.23 175.88C349.77 175.88 349.87 175.92 349.94 175.93C350.25 176.03 350.22 176.37 350.25 176.42C350.25 176.65 350.12 176.77 350.11 176.81C350.01 176.9 349.89 176.95 349.74 176.95C349.58 176.94 349.5 176.94 349.48 176.94ZM355 181.5C354.76 181.28 354.68 181.16 354.64 181.12C354.14 181.4 353.84 181.49 353.76 181.53C353.38 181.67 353.19 181.66 353.13 181.67C351.91 181.67 351.53 181.05 351.35 180.98C350.83 180.34 350.88 179.2 350.83 179C350.83 177.74 351.61 177.06 351.69 176.85C352.56 175.95 353.56 176.04 353.77 175.95C354.21 175.95 354.68 176.16 354.78 176.18C355.49 176.47 355.41 176.82 355.49 176.89C355.49 177.02 355.39 177.11 355.38 177.14C355.33 177.34 355.31 177.73 355.3 177.79C355.28 178.24 355.27 178.84 355.27 178.95C355.27 179.6 355.35 179.87 355.36 179.97C355.41 180.2 355.65 180.8 355.68 180.89C355.71 180.95 355.75 181.04 355.81 181.16C355.83 181.22 355.84 181.25 355.84 181.25C355.84 181.46 355.71 181.56 355.69 181.6C355.6 181.69 355.48 181.73 355.35 181.73C355.14 181.59 355.02 181.52 355 181.5ZM354.3 177.63C354.33 177.36 354.37 177.12 354.38 177.07C354.19 176.96 354.08 176.93 354.05 176.92C353.91 176.87 353.85 176.87 353.83 176.87C353.03 176.87 352.57 177.47 352.43 177.53C351.85 178.19 351.91 178.89 351.85 179.04C351.85 179.9 352.12 180.2 352.15 180.33C352.45 180.75 352.97 180.71 353.06 180.75C353.56 180.75 353.83 180.59 353.91 180.58C354.1 180.47 354.38 180.22 354.43 180.18C354.32 179.26 354.27 178.57 354.27 178.11C354.29 177.82 354.3 177.66 354.3 177.63Z" id="f5q400yHCF"/><path d="M236.82 164.96L261.57 164.96L261.57 191.19L236.82 191.19L236.82 164.96Z" id="a1tt1O0lNq"/><path d="M236.82 164.96L261.57 164.96L261.57 191.19L236.82 191.19L236.82 164.96Z" id="d1yPTGJ3qO"/><path d="M419 165.05L601.09 165.05L601.09 191.28L419 191.28L419 165.05Z" id="b3sHyp3rGV"/><path d="M419 165.05L601.09 165.05L601.09 191.28L419 191.28L419 165.05Z" id="a3O1qnVxv"/><path d="M458.01 165.24L562.07 165.24L562.07 191.09L458.01 191.09L458.01 165.24Z" id="a936PhAPk"/><path d="M487.14 175.24C486.99 174.91 486.89 174.87 486.87 174.83C486.76 174.78 486.38 174.79 486.33 174.78C485.58 174.78 484.82 175.82 484.65 175.94C483.4 177.49 483.52 178.58 483.4 178.88C483.4 179.55 483.79 179.92 483.84 180.03C484.27 180.53 484.79 180.48 484.9 180.53C485.44 180.53 485.87 180.29 485.98 180.26C486.28 180.1 486.82 179.71 486.91 179.65C487.2 179.43 487.31 179.45 487.36 179.43C487.58 179.43 487.69 179.58 487.72 179.59C487.88 179.76 487.86 179.93 487.88 179.97C487.88 180.21 487.7 180.34 487.68 180.39C486.31 181.6 485.18 181.48 484.9 181.6C483.83 181.6 483.26 180.85 483.08 180.77C482.36 179.97 482.43 179.06 482.36 178.88C482.36 177.11 483.69 175.62 483.84 175.26C485.08 173.71 486.08 173.86 486.33 173.71C486.59 173.71 486.74 173.74 486.78 173.74C486.99 173.76 487.11 173.81 487.15 173.81C487.33 173.54 487.57 173.57 487.62 173.54C487.98 173.54 488.03 173.97 488.08 174.02C488.16 174.44 488.15 174.95 488.16 175.05C488.16 175.27 488.06 175.39 488.04 175.43C487.95 175.57 487.81 175.64 487.64 175.64C487.34 175.4 487.17 175.27 487.14 175.24ZM492.92 181.41C492.79 180.98 492.72 180.31 492.7 180.19C492.61 179.44 492.62 179.07 492.61 178.95C492.61 178.81 492.62 178.58 492.62 178.54C492.63 178.26 492.63 178.17 492.63 178.13C492.63 177.15 492.19 177.24 492.14 177.15C491.48 177.15 491.08 177.69 490.96 177.75C490.69 178.05 490.31 178.8 490.23 178.92C490.23 180.91 490.08 181.04 490.07 181.27C489.92 181.59 489.65 181.56 489.61 181.59C489.4 181.59 489.27 181.46 489.23 181.45C489.08 181.3 489.09 181.13 489.08 181.09C489.08 181.02 489.11 180.89 489.12 180.86C489.15 180.77 489.17 180.52 489.18 180.1L489.19 179.33C489.2 177.03 489.21 175.76 489.21 175.5C489.24 174.85 489.24 174.72 489.24 174.64C489.24 174.36 489.2 174.19 489.19 174.14C489.15 173.9 489.15 173.69 489.15 173.64C489.15 173.42 489.28 173.32 489.29 173.28C489.45 173.14 489.63 173.15 489.67 173.14C490.1 173.14 490.12 173.55 490.17 173.59C490.25 174.09 490.24 174.41 490.25 174.5C490.25 175.05 490.22 175.53 490.21 175.65C490.19 176.02 490.18 176.4 490.19 176.78C490.19 177.06 490.19 177.21 490.19 177.24C490.62 176.67 491.02 176.47 491.11 176.39C491.6 176.1 492.04 176.13 492.14 176.1C493 176.1 493.21 176.61 493.33 176.67C493.48 176.93 493.57 177.38 493.59 178L493.63 178.99C493.69 179.64 493.73 180 493.73 180.07C493.81 180.69 493.89 181.04 493.91 181.15C493.93 181.24 493.93 181.29 493.93 181.3C493.93 181.52 493.79 181.62 493.77 181.66C493.67 181.75 493.54 181.8 493.4 181.8C493.11 181.56 492.95 181.43 492.92 181.41ZM499.46 179.56C499.47 180.31 499.47 180.58 499.47 180.69C499.47 180.8 499.48 181.01 499.48 181.04C499.5 181.27 499.5 181.35 499.5 181.39C499.5 181.61 499.36 181.71 499.34 181.75C499.2 181.9 499.01 181.88 498.98 181.9C498.58 181.9 498.52 181.45 498.47 181.4C497.82 181.74 497.12 181.71 496.97 181.74C496.29 181.74 495.95 181.47 495.84 181.44C495.34 181.1 495.31 180.56 495.25 180.46C495.05 179.08 495.07 178.25 495.05 178C495.05 177.29 495.19 176.54 495.21 176.38C495.28 175.93 495.65 175.97 495.7 175.93C495.93 175.93 496.03 176.06 496.07 176.07C496.23 176.21 496.21 176.4 496.23 176.44C496.23 176.68 496.15 177.13 496.14 177.21C496.07 177.73 496.08 177.92 496.07 178C496.07 178.88 496.12 179.35 496.12 179.5C496.19 180.11 496.28 180.39 496.3 180.49C496.48 180.58 496.61 180.62 496.64 180.64C496.81 180.68 496.93 180.67 496.97 180.68C497.43 180.68 497.93 180.6 498.45 180.46L498.44 179.4C498.43 178.79 498.43 178.45 498.43 178.39C498.43 177.26 498.52 176.63 498.53 176.44C498.58 175.96 498.98 176.01 499.03 175.96C499.26 175.96 499.37 176.09 499.4 176.1C499.51 176.2 499.56 176.32 499.55 176.47L499.46 178.44C499.46 179.11 499.46 179.49 499.46 179.56ZM504.24 181.35C504.16 180.67 504.11 180.29 504.1 180.22C504.02 179.6 504.03 179.19 504.02 179.07C504.02 178.93 504.03 178.63 504.03 178.58C504.06 178.23 504.05 178.13 504.06 178.08C504.06 176.96 503.68 177.07 503.64 176.96C503.06 176.96 502.64 177.59 502.52 177.66C502.04 178.28 501.85 179.09 501.77 179.25C501.76 179.45 501.74 179.71 501.73 179.76C501.7 180.02 501.7 180.21 501.7 180.26C501.7 180.42 501.73 180.68 501.73 180.73C501.76 181.04 501.76 181.15 501.76 181.2C501.76 181.44 501.63 181.54 501.62 181.58C501.47 181.73 501.29 181.71 501.25 181.73C501.02 181.73 500.92 181.6 500.88 181.58C500.74 181.44 500.76 181.24 500.74 181.2C500.74 181.04 500.71 180.78 500.7 180.73C500.67 180.42 500.67 180.31 500.67 180.26C500.67 179.73 500.74 178.93 500.74 178.78C500.83 177.82 500.82 177.44 500.83 177.29C500.83 177.13 500.81 176.85 500.81 176.8C500.78 176.47 500.79 176.35 500.78 176.3C500.78 176.07 500.92 175.97 500.93 175.94C501.09 175.79 501.27 175.81 501.31 175.79C501.62 175.79 501.8 176.02 501.83 176.47C501.84 176.83 501.85 177.03 501.85 177.07C502.72 175.91 503.46 176.02 503.64 175.91C504.47 175.91 504.69 176.57 504.81 176.65C504.95 176.97 505.03 177.46 505.04 178.09L505.04 178.61C505.04 178.91 505.04 179.07 505.04 179.1C505.04 179.53 505.14 180.11 505.15 180.22C505.26 180.91 505.25 181.22 505.26 181.33C505.26 181.56 505.13 181.67 505.12 181.71C505.02 181.81 504.9 181.85 504.74 181.85L504.24 181.35ZM510.23 181.39C510.05 181.04 509.78 180.63 509.41 180.15C508.86 179.39 508.55 178.97 508.49 178.89C508.19 179.13 507.65 179.49 507.56 179.56C507.49 180.36 507.5 180.98 507.49 181.14C507.49 181.36 507.36 181.47 507.35 181.51C507.21 181.67 507.02 181.65 506.98 181.67C506.46 181.67 506.51 181.02 506.46 180.95C506.46 180.52 506.51 179.79 506.51 179.66C506.58 178.79 506.57 178.49 506.58 178.36C506.58 177.57 506.59 176.73 506.6 176.55C506.63 175.53 506.63 174.93 506.63 174.75C506.63 174.52 506.6 174.26 506.6 174.21C506.58 173.89 506.58 173.7 506.58 173.65C506.58 173.42 506.71 173.31 506.72 173.27C506.87 173.13 507.05 173.14 507.09 173.13C507.32 173.13 507.41 173.26 507.45 173.27C507.6 173.42 507.58 173.61 507.6 173.65C507.6 173.89 507.62 174.16 507.62 174.22C507.64 174.43 507.65 174.62 507.65 174.78C507.63 175.79 507.62 176.35 507.62 176.46C507.59 177.36 507.6 178.09 507.6 178.27C508.07 177.91 508.52 177.51 508.96 177.08C509.65 176.37 510.03 175.98 510.11 175.9C510.28 175.72 510.44 175.74 510.48 175.72C510.68 175.72 510.81 175.87 510.85 175.89C511.01 176.04 511 176.22 511.01 176.26C511.01 176.44 510.87 176.57 510.86 176.6C510.43 177.1 509.91 177.64 509.28 178.22C509.97 179.14 510.34 179.66 510.42 179.76C511.21 180.85 511.13 181.04 511.21 181.18C511.21 181.39 511.06 181.51 511.04 181.54C510.94 181.65 510.82 181.7 510.67 181.7C510.41 181.51 510.26 181.41 510.23 181.39ZM517.85 182C517.46 182 517.06 181.89 516.97 181.88C516.58 181.78 516.29 181.66 516.09 181.51C516.06 181.51 516.04 181.51 516.03 181.51C515.82 181.51 515.7 181.37 515.66 181.35C515.51 181.2 515.53 181.01 515.51 180.97C515.51 180.43 515.55 179.5 515.56 179.33C515.61 178.24 515.6 177.86 515.61 177.7C515.61 177.08 515.59 176.06 515.59 175.88C515.57 174.67 515.57 174.23 515.57 174.05C515.57 173.84 515.76 173.66 515.78 173.61C516 173.38 516.18 173.4 516.22 173.38C516.35 173.38 516.97 173.68 517.06 173.72C517.86 174.11 517.89 174.11 517.98 174.16C519.46 174.66 520.25 175.55 520.5 175.71C521.72 176.94 521.6 178.15 521.72 178.42C521.72 179.31 521.35 179.96 521.31 180.14C521.03 180.68 520.65 181.11 520.16 181.44C518.77 181.78 518 181.96 517.85 182ZM516.62 174.73L516.64 176.23L516.66 177.73C516.61 179.44 516.58 180.38 516.58 180.57C516.61 180.58 516.67 180.63 516.68 180.64C517.14 180.95 517.72 180.92 517.84 180.95C519.02 180.95 519.39 180.62 519.57 180.58C520.08 180.24 520.29 179.75 520.37 179.66C520.67 179.07 520.64 178.57 520.67 178.45C520.67 177.47 520.14 176.63 519.07 175.93L516.62 174.73ZM526.69 181.59C526.45 181.38 526.37 181.25 526.34 181.21C525.84 181.49 525.54 181.58 525.45 181.63C525.08 181.76 524.89 181.75 524.83 181.76C523.61 181.76 523.22 181.14 523.04 181.07C522.52 180.43 522.58 179.29 522.52 179.09C522.52 177.83 523.3 177.15 523.39 176.94C524.25 176.04 525.25 176.13 525.46 176.04C525.91 176.04 526.37 176.25 526.47 176.27C527.18 176.56 527.11 176.91 527.18 176.98C527.18 177.11 527.09 177.2 527.08 177.23C527.02 177.43 527 177.82 526.99 177.89C526.97 178.33 526.96 178.93 526.96 179.04C526.96 179.69 527.05 179.96 527.06 180.06C527.11 180.29 527.35 180.89 527.38 180.98C527.41 181.04 527.45 181.13 527.5 181.25C527.52 181.31 527.53 181.34 527.53 181.34C527.53 181.55 527.4 181.65 527.39 181.69C527.29 181.78 527.18 181.82 527.04 181.82C526.83 181.69 526.71 181.61 526.69 181.59ZM525.99 177.72C526.02 177.45 526.07 177.21 526.08 177.16C525.89 177.05 525.78 177.03 525.74 177.01C525.61 176.96 525.55 176.96 525.52 176.96C524.72 176.96 524.27 177.56 524.13 177.63C523.54 178.28 523.6 178.98 523.54 179.14C523.54 179.99 523.82 180.29 523.85 180.42C524.15 180.84 524.66 180.8 524.75 180.84C525.25 180.84 525.52 180.68 525.61 180.67C525.79 180.56 526.08 180.31 526.13 180.27C526.02 179.35 525.96 178.66 525.96 178.2C525.98 177.91 525.99 177.75 525.99 177.72ZM531.66 177.03C531.51 177.02 531.43 177.02 531.41 177.02C531.33 177.02 531.09 177.05 530.7 177.09L530.79 180.18L530.81 180.41C530.81 180.56 530.81 180.65 530.81 180.67C530.83 181.81 530.32 181.7 530.26 181.81C530.06 181.81 529.94 181.69 529.9 181.68C529.74 181.54 529.76 181.37 529.74 181.33C529.74 181.14 529.75 180.8 529.75 180.74C529.77 180.48 529.77 180.28 529.77 180.15C529.71 178.32 529.68 177.31 529.67 177.1C529.29 177.09 528.63 177.03 528.51 177.02C528.06 176.96 528.1 176.55 528.06 176.5C528.06 176.27 528.18 176.16 528.19 176.13C528.29 176.02 528.41 175.97 528.56 175.97C529.21 176.03 529.58 176.06 529.65 176.06C529.65 175.79 529.62 175.43 529.62 175.35C529.6 174.91 529.6 174.77 529.6 174.71C529.6 174.49 529.73 174.38 529.74 174.34C529.9 174.2 530.08 174.21 530.12 174.2C530.59 174.2 530.61 174.89 530.67 174.97C530.68 175.09 530.68 175.25 530.68 175.43L530.67 175.73C530.67 175.92 530.67 176.03 530.67 176.05C531.32 175.97 531.34 175.98 531.41 175.97C531.95 175.97 532.05 176.02 532.12 176.02C532.43 176.13 532.4 176.46 532.43 176.51C532.43 176.74 532.3 176.86 532.28 176.9C532.19 176.99 532.07 177.04 531.92 177.04C531.76 177.04 531.68 177.03 531.66 177.03ZM537.18 181.59C536.94 181.38 536.86 181.25 536.82 181.21C536.32 181.49 536.02 181.58 535.94 181.63C535.56 181.76 535.37 181.75 535.31 181.76C534.09 181.76 533.71 181.14 533.53 181.07C533.01 180.43 533.06 179.29 533.01 179.09C533.01 177.83 533.79 177.15 533.87 176.94C534.74 176.04 535.74 176.13 535.95 176.04C536.39 176.04 536.86 176.25 536.96 176.27C537.66 176.56 537.59 176.91 537.66 176.98C537.66 177.11 537.57 177.2 537.56 177.23C537.51 177.43 537.49 177.82 537.48 177.89C537.46 178.33 537.45 178.93 537.45 179.04C537.45 179.69 537.53 179.96 537.54 180.06C537.59 180.29 537.83 180.89 537.86 180.98C537.89 181.04 537.93 181.13 537.99 181.25C538.01 181.31 538.02 181.34 538.02 181.34C538.02 181.55 537.89 181.65 537.87 181.69C537.78 181.78 537.66 181.82 537.53 181.82C537.32 181.69 537.2 181.61 537.18 181.59ZM536.48 177.72C536.51 177.45 536.55 177.21 536.56 177.16C536.37 177.05 536.26 177.03 536.23 177.01C536.09 176.96 536.03 176.96 536.01 176.96C535.21 176.96 534.75 177.56 534.61 177.63C534.03 178.28 534.09 178.98 534.03 179.14C534.03 179.99 534.3 180.29 534.33 180.42C534.63 180.84 535.15 180.8 535.24 180.84C535.74 180.84 536.01 180.68 536.09 180.67C536.28 180.56 536.56 180.31 536.61 180.27C536.5 179.35 536.45 178.66 536.45 178.2C536.46 177.91 536.48 177.75 536.48 177.72Z" id="chk77Jx3R"/><path d="M419 165.05L443.75 165.05L443.75 191.28L419 191.28L419 165.05Z" id="b2TtoFi8b4"/><path d="M419 165.05L443.75 165.05L443.75 191.28L419 191.28L419 165.05Z" id="bhB9MCNZa"/><path d="M539.35 151.42L693.76 151.42L693.76 189.13L539.35 189.13L539.35 151.42Z" id="ew1IPVoAl"/><path d="M610.7 177.61C610.35 177.26 610.39 176.82 610.35 176.74C610.35 176.23 610.67 175.96 610.7 175.87C611.07 175.51 611.5 175.54 611.59 175.51C612.1 175.51 612.38 175.83 612.46 175.87C612.83 176.23 612.79 176.65 612.83 176.74C612.83 177.26 612.5 177.52 612.46 177.61C612.22 177.85 611.93 177.98 611.59 177.98C611.06 177.76 610.76 177.63 610.7 177.61ZM615.79 177.61C615.44 177.26 615.47 176.82 615.44 176.74C615.44 176.23 615.76 175.96 615.79 175.87C616.16 175.51 616.59 175.54 616.68 175.51C617.19 175.51 617.47 175.83 617.55 175.87C617.92 176.23 617.88 176.65 617.92 176.74C617.92 177.26 617.59 177.52 617.55 177.61C617.31 177.85 617.02 177.98 616.68 177.98C616.15 177.76 615.85 177.63 615.79 177.61ZM620.88 177.61C620.53 177.26 620.56 176.82 620.53 176.74C620.53 176.23 620.85 175.96 620.88 175.87C621.25 175.51 621.68 175.54 621.77 175.51C622.28 175.51 622.56 175.83 622.64 175.87C623.01 176.23 622.97 176.65 623.01 176.74C623.01 177.26 622.68 177.52 622.64 177.61C622.4 177.85 622.11 177.98 621.77 177.98C621.24 177.76 620.94 177.63 620.88 177.61Z" id="cduOCGvr8"/><path d="M28.3 165.24L132.37 165.24L132.37 191.09L28.3 191.09L28.3 165.24Z" id="c7towvcwwZ"/><path d="M69.48 174.78C69.48 174.94 69.49 175.2 69.49 175.25C69.5 175.55 69.5 175.66 69.5 175.71C69.5 176.23 69.42 177.11 69.41 177.26C69.31 178.29 69.32 178.66 69.31 178.81C69.31 179.21 69.36 179.88 69.37 180C69.43 180.79 69.42 181.07 69.43 181.19C69.43 181.41 69.3 181.52 69.28 181.55C69.15 181.7 68.96 181.68 68.93 181.7C68.72 181.7 68.61 181.57 68.57 181.55C68.43 181.41 68.44 181.22 68.43 181.19C68.43 180.79 68.37 180.12 68.37 180C68.31 179.21 68.32 178.93 68.31 178.81C68.31 178.43 68.34 178.12 68.35 178.04C67.75 178.05 67.01 178.14 66.14 178.3C64.82 178.56 64.1 178.7 63.95 178.73C63.95 179.2 63.87 179.93 63.86 180.06C63.76 180.93 63.77 181.26 63.76 181.4C63.76 181.61 63.63 181.72 63.62 181.76C63.48 181.92 63.3 181.9 63.26 181.92C63.05 181.92 62.94 181.78 62.91 181.76C62.76 181.61 62.78 181.43 62.76 181.4C62.76 180.84 62.85 179.91 62.86 179.75C62.95 178.66 62.94 178.27 62.95 178.1C62.95 177.81 62.93 177.33 62.93 177.24C62.91 176.66 62.91 176.45 62.91 176.36C62.91 175.96 62.96 175.26 62.96 175.14C63.01 174.3 63.01 174.02 63.01 173.9C63.01 173.68 63.13 173.57 63.15 173.53C63.29 173.39 63.48 173.4 63.51 173.39C63.72 173.39 63.83 173.52 63.87 173.53C64.01 173.68 64 173.86 64.01 173.9C64.01 174.31 63.96 175.02 63.95 175.15C63.92 175.69 63.9 176.11 63.9 176.39L63.93 177.71C65.27 177.45 66.02 177.31 66.17 177.28C67.5 177.03 68.19 177.05 68.42 177.02C68.48 176.28 68.47 175.01 68.48 174.78C68.48 174.39 68.59 174.06 68.61 173.98C68.78 173.42 69.05 173.47 69.1 173.42C69.29 173.42 69.41 173.55 69.45 173.56C69.61 173.71 69.59 173.89 69.61 173.93C69.61 173.98 69.59 174.05 69.55 174.14C69.51 174.52 69.49 174.74 69.48 174.78ZM71.41 181.13C70.62 180.48 70.7 179.48 70.62 179.3C70.62 177.95 71.21 177.26 71.28 177.03C71.99 176.03 72.99 176.13 73.18 176.03C74.05 176.03 74.45 176.29 74.59 176.32C75.27 176.69 75.2 177.32 75.27 177.43C75.27 177.95 74.73 178.28 74.67 178.38C74.5 178.5 74.13 178.69 73.57 178.96C72.38 179.53 71.71 179.84 71.58 179.91C71.87 180.33 72.24 180.49 72.31 180.55C72.75 180.77 73.22 180.75 73.32 180.77C73.68 180.77 74.08 180.65 74.16 180.64C74.78 180.47 74.88 180.23 74.96 180.19C75.13 179.91 75.3 179.93 75.34 179.91C75.52 179.91 75.63 180.04 75.66 180.05C75.81 180.19 75.79 180.33 75.81 180.36C75.81 180.95 74.97 181.26 74.87 181.36C74.34 181.6 73.83 181.72 73.32 181.72C72.18 181.36 71.54 181.16 71.41 181.13ZM72.12 177.47C71.84 177.8 71.64 178.29 71.5 178.95C72.45 178.49 72.98 178.24 73.09 178.19C74.04 177.73 74.3 177.47 74.43 177.39C74.14 177.11 73.72 176.97 73.18 176.97C72.55 177.27 72.19 177.44 72.12 177.47ZM80.44 181.59C80.21 181.38 80.13 181.25 80.09 181.21C79.59 181.49 79.29 181.58 79.21 181.63C78.83 181.76 78.64 181.75 78.58 181.76C77.36 181.76 76.98 181.14 76.8 181.07C76.28 180.43 76.33 179.29 76.28 179.09C76.28 177.83 77.06 177.15 77.14 176.94C78.01 176.04 79.01 176.13 79.22 176.04C79.66 176.04 80.12 176.25 80.23 176.27C80.93 176.56 80.86 176.91 80.93 176.98C80.93 177.11 80.84 177.2 80.83 177.23C80.78 177.43 80.76 177.82 80.75 177.89C80.73 178.33 80.72 178.93 80.72 179.04C80.72 179.69 80.8 179.96 80.81 180.06C80.86 180.29 81.1 180.89 81.13 180.98C81.16 181.04 81.2 181.13 81.26 181.25C81.28 181.31 81.29 181.34 81.29 181.34C81.29 181.55 81.16 181.65 81.14 181.69C81.05 181.78 80.93 181.82 80.8 181.82C80.59 181.69 80.47 181.61 80.44 181.59ZM79.75 177.72C79.78 177.45 79.82 177.21 79.83 177.16C79.64 177.05 79.53 177.03 79.5 177.01C79.36 176.96 79.3 176.96 79.28 176.96C78.48 176.96 78.02 177.56 77.88 177.63C77.3 178.28 77.36 178.98 77.3 179.14C77.3 179.99 77.57 180.29 77.6 180.42C77.9 180.84 78.42 180.8 78.51 180.84C79.01 180.84 79.28 180.68 79.36 180.67C79.55 180.56 79.83 180.31 79.88 180.27C79.77 179.35 79.72 178.66 79.72 178.2C79.73 177.91 79.74 177.75 79.75 177.72ZM86.92 178.41C86.92 180.15 87.07 180.77 87.09 181.03C87.1 181.1 87.1 181.13 87.1 181.15C87.1 181.35 86.97 181.46 86.96 181.49C86.81 181.64 86.65 181.62 86.61 181.64C86.29 181.64 86.19 181.2 86.14 181.16C85.77 181.44 85.44 181.53 85.36 181.57C84.96 181.72 84.6 181.7 84.52 181.72C83.44 181.72 82.91 181.07 82.74 181C82.01 180.26 82.08 179.3 82.01 179.11C82.01 177.72 82.66 177.11 82.74 176.89C83.48 176.04 84.46 176.13 84.65 176.04C85.06 176.04 85.37 176.1 85.59 176.23C85.88 176.45 86.05 176.57 86.08 176.59C86.15 174.4 86.23 173.93 86.25 173.64C86.32 173.18 86.68 173.22 86.73 173.18C87.19 173.18 87.15 173.63 87.19 173.68C87.19 174.16 87.13 175.23 86.99 176.88C86.95 177.79 86.93 178.3 86.92 178.41ZM83.36 177.53C82.92 178.05 82.97 178.94 82.92 179.09C82.92 179.76 83.36 180.13 83.4 180.25C83.88 180.73 84.41 180.68 84.52 180.73C84.96 180.73 85.18 180.59 85.26 180.57C85.43 180.48 85.78 180.18 85.84 180.14C85.89 180.09 85.94 180.04 85.99 179.98L85.98 179.07L85.98 178.47C85.98 178.1 85.99 177.9 85.99 177.85C85.79 177.44 85.51 177.29 85.46 177.23C85.24 177.08 84.98 177.01 84.67 177.01C83.89 177.32 83.45 177.5 83.36 177.53ZM88.98 181.13C88.19 180.48 88.27 179.48 88.19 179.3C88.19 177.95 88.78 177.26 88.85 177.03C89.55 176.03 90.56 176.13 90.75 176.03C91.62 176.03 92.02 176.29 92.16 176.32C92.84 176.69 92.77 177.32 92.84 177.43C92.84 177.95 92.3 178.28 92.24 178.38C92.07 178.5 91.7 178.69 91.14 178.96C89.94 179.53 89.28 179.84 89.15 179.91C89.44 180.33 89.8 180.49 89.88 180.55C90.31 180.77 90.79 180.75 90.89 180.77C91.25 180.77 91.65 180.65 91.73 180.64C92.35 180.47 92.44 180.23 92.52 180.19C92.7 179.91 92.87 179.93 92.91 179.91C93.09 179.91 93.2 180.04 93.23 180.05C93.38 180.19 93.36 180.33 93.38 180.36C93.38 180.95 92.53 181.26 92.44 181.36C91.91 181.6 91.39 181.72 90.89 181.72C89.74 181.36 89.11 181.16 88.98 181.13ZM89.69 177.47C89.41 177.8 89.2 178.29 89.06 178.95C90.02 178.49 90.55 178.24 90.66 178.19C91.61 177.73 91.87 177.47 92 177.39C91.7 177.11 91.29 176.97 90.75 176.97C90.11 177.27 89.76 177.44 89.69 177.47ZM97.84 178.28C97.39 178.28 97.43 177.81 97.39 177.76C97.39 177.7 97.38 177.58 97.37 177.4C97.36 177.13 97.36 176.99 97.36 176.96C96.53 177.06 96.17 177.38 96.03 177.43C95.73 177.65 95.47 177.99 95.26 178.45C95.27 180.16 95.27 181.11 95.27 181.3C95.27 181.83 94.81 181.78 94.76 181.83C94.46 181.83 94.3 181.66 94.3 181.3C94.3 179.11 94.3 177.89 94.3 177.65C94.3 177.47 94.31 177.18 94.31 177.13C94.32 176.78 94.32 176.67 94.32 176.61C94.32 176.08 94.74 176.14 94.78 176.08C95.29 176.08 95.25 176.86 95.3 176.95C96.3 175.99 97.3 176.09 97.52 175.99C97.94 175.99 98.09 176.28 98.15 176.31C98.36 176.63 98.34 177.17 98.36 177.26C98.36 177.44 98.36 177.56 98.36 177.63C98.04 178.02 97.87 178.24 97.84 178.28Z" id="bzuEAnkn4"/><path d="M132.67 165.15L236.73 165.15L236.73 191L132.67 191L132.67 165.15Z" id="e2s2O6yDRL"/><path d="M160.99 174.74C160.47 174.71 160.07 174.69 159.8 174.69C159.58 174.69 159.46 174.69 159.44 174.69C159.45 175.41 159.56 176.79 159.57 177.02C159.69 178.53 159.68 179.13 159.69 179.37C159.69 179.54 159.72 179.86 159.72 179.92C159.76 180.28 159.76 180.42 159.76 180.47C159.76 180.83 159.66 181.02 159.65 181.09C159.5 181.43 159.24 181.4 159.2 181.43C158.99 181.43 158.86 181.3 158.82 181.28C158.66 181.14 158.67 180.95 158.66 180.91C158.66 180.83 158.67 180.69 158.68 180.67C158.71 180.51 158.7 180.46 158.71 180.44C158.71 180.18 158.67 179.75 158.67 179.67C158.64 179.16 158.64 178.98 158.64 178.9C158.64 178.16 158.53 177.01 158.52 176.81C158.44 175.83 158.39 175.13 158.37 174.71C158.09 174.72 157.94 174.72 157.91 174.72C156.76 174.72 156.29 174.57 156.11 174.56C155.69 174.44 155.73 174.09 155.69 174.03C155.69 173.83 155.81 173.7 155.82 173.66C155.98 173.48 156.19 173.51 156.23 173.49C156.41 173.5 156.98 173.58 157.06 173.59C157.58 173.65 157.82 173.64 157.91 173.65C158.22 173.65 158.76 173.64 158.85 173.64C159.49 173.63 159.71 173.63 159.8 173.63C160.2 173.63 160.87 173.68 160.99 173.69C161.78 173.74 162.06 173.74 162.18 173.74C162.41 173.74 162.51 173.88 162.55 173.9C162.71 174.04 162.69 174.24 162.71 174.27C162.71 174.5 162.57 174.62 162.55 174.66C162.45 174.76 162.33 174.81 162.18 174.81C161.46 174.77 161.07 174.75 160.99 174.74ZM163.61 174.62C163.44 174.44 163.45 174.23 163.44 174.19C163.44 173.94 163.6 173.81 163.61 173.76C163.8 173.59 164.01 173.6 164.05 173.59C164.3 173.59 164.44 173.75 164.48 173.76C164.67 173.94 164.65 174.15 164.67 174.19C164.67 174.44 164.5 174.57 164.48 174.62C164.36 174.74 164.22 174.79 164.05 174.79C163.79 174.69 163.64 174.63 163.61 174.62ZM164.3 179.96C164.32 180.58 164.32 180.8 164.32 180.89C164.32 181.12 164.19 181.24 164.18 181.27C164.04 181.42 163.85 181.41 163.81 181.42C163.59 181.42 163.48 181.29 163.45 181.27C163.3 181.12 163.32 180.93 163.3 180.89C163.3 180.58 163.28 180.05 163.28 179.96C163.27 179.34 163.27 179.12 163.27 179.02C163.27 178.53 163.32 177.93 163.32 177.81C163.37 177.07 163.37 176.7 163.37 176.58C163.37 176.35 163.5 176.24 163.51 176.2C163.66 176.06 163.85 176.07 163.89 176.06C164.1 176.06 164.21 176.19 164.25 176.2C164.4 176.35 164.38 176.54 164.4 176.58C164.4 177.07 164.35 177.68 164.34 177.81C164.31 178.29 164.29 178.7 164.29 179.02C164.3 179.59 164.3 179.9 164.3 179.96ZM172.17 181.37C172.1 180.99 172.04 180.45 171.98 179.75C171.87 178.78 171.81 178.25 171.8 178.14C171.75 177.77 171.64 177.5 171.62 177.43C171.45 176.96 171.28 177.01 171.24 176.96C171.04 176.96 170.59 177.26 170.52 177.29C170.02 177.6 169.93 177.73 169.86 177.77C169.86 178.1 169.86 178.43 169.89 178.75C169.98 179.59 170.03 180.06 170.04 180.15C170.15 180.97 170.14 181.38 170.15 181.51C170.15 181.74 170.01 181.85 170 181.89C169.85 182.03 169.67 182.02 169.64 182.03C169.41 182.03 169.3 181.9 169.26 181.89C169.12 181.74 169.14 181.55 169.12 181.51C169.12 180.88 169 179.84 168.99 179.65C168.86 178.41 168.88 177.97 168.86 177.78C168.86 177.23 168.72 177.01 168.71 176.92C168.46 177.03 168.22 177.21 167.97 177.46C167.6 177.87 167.39 178.1 167.35 178.15C167.27 178.27 167.12 178.45 167.09 178.48C167.09 178.79 167.04 179.32 167.03 179.41C166.98 180.01 166.98 180.22 166.98 180.31C166.98 180.46 167.02 180.7 167.02 180.74C167.07 181.02 167.07 181.11 167.07 181.15C167.07 181.36 166.93 181.47 166.92 181.5C166.76 181.66 166.58 181.64 166.54 181.66C165.96 181.66 166.02 180.45 165.96 180.32C165.96 180 166 179.48 166.01 179.39C166.07 178.76 166.07 178.54 166.07 178.45C166.07 178.17 166.03 177.7 166.02 177.62C165.97 177.07 165.97 176.87 165.97 176.78C165.97 175.61 166.45 175.72 166.5 175.61C166.71 175.61 166.84 175.77 166.87 175.78C167.04 175.96 167.02 176.13 167.04 176.17C167.04 176.26 167.01 176.44 167.01 176.47C167 176.61 166.99 176.72 166.99 176.79C167 177.12 167 177.3 167 177.34C167.27 176.78 167.71 176.44 167.79 176.34C168.32 175.88 168.61 175.92 168.7 175.88C169.51 175.88 169.71 176.61 169.82 176.69C170.1 176.32 170.43 176.18 170.5 176.13C170.9 175.93 171.32 175.95 171.41 175.93C172.28 175.93 172.47 176.77 172.59 176.87C172.66 177.06 172.79 178.19 172.81 178.34C172.96 179.23 173.15 181.02 173.19 181.32C173.2 181.53 173.06 181.64 173.04 181.68C172.94 181.78 172.81 181.83 172.67 181.83C172.37 181.55 172.2 181.4 172.17 181.37ZM174.86 181.03C174.07 180.39 174.15 179.39 174.07 179.21C174.07 177.86 174.66 177.17 174.72 176.94C175.43 175.94 176.44 176.04 176.63 175.94C177.49 175.94 177.9 176.2 178.04 176.23C178.71 176.6 178.65 177.23 178.71 177.34C178.71 177.86 178.18 178.19 178.12 178.28C177.95 178.41 177.58 178.6 177.02 178.87C175.82 179.44 175.16 179.75 175.03 179.82C175.32 180.24 175.68 180.4 175.75 180.46C176.19 180.68 176.66 180.66 176.77 180.68C177.13 180.68 177.52 180.56 177.61 180.54C178.22 180.38 178.32 180.14 178.4 180.1C178.58 179.82 178.75 179.84 178.79 179.82C178.96 179.82 179.08 179.95 179.11 179.96C179.25 180.1 179.24 180.24 179.25 180.27C179.25 180.86 178.41 181.17 178.32 181.27C177.79 181.51 177.27 181.63 176.77 181.63C175.62 181.27 174.99 181.07 174.86 181.03ZM175.57 177.38C175.29 177.7 175.08 178.2 174.94 178.86C175.9 178.4 176.43 178.15 176.54 178.1C177.48 177.64 177.75 177.37 177.88 177.29C177.58 177.02 177.16 176.88 176.63 176.88C175.99 177.18 175.64 177.34 175.57 177.38ZM183.3 177.18C183.21 177.04 183.17 176.67 183.16 176.62C182.77 176.72 182.07 176.95 181.95 176.98C181.12 177.32 181.19 177.72 181.11 177.81C181.27 177.87 181.39 177.88 181.42 177.89C182.62 178.11 183.02 178.42 183.2 178.48C184.05 179.02 183.96 179.91 184.05 180.07C184.05 180.91 183.39 181.22 183.32 181.35C182.7 181.7 181.93 181.67 181.78 181.7C181.09 181.7 180.6 181.49 180.47 181.47C179.67 181.18 179.75 180.74 179.67 180.66C179.67 180.45 179.81 180.33 179.83 180.29C179.99 180.14 180.17 180.15 180.2 180.14C180.37 180.14 180.58 180.36 180.62 180.39C180.74 180.5 181.13 180.57 181.18 180.59C181.54 180.65 181.72 180.64 181.78 180.65C182.21 180.65 182.47 180.56 182.55 180.54C183.03 180.39 182.98 180.11 183.03 180.07C183.03 179.59 182.7 179.27 182.04 179.11C181.71 179.03 181.53 178.99 181.49 178.98C180.81 178.84 180.61 178.66 180.52 178.63C180.09 178.34 180.13 177.84 180.09 177.75C180.09 176.66 181.02 176.36 181.12 176.2C181.43 176.06 182.02 175.9 182.12 175.87C182.81 175.67 183 175.57 183.1 175.53C183.32 175.44 183.52 175.45 183.57 175.44C183.79 175.44 183.9 175.57 183.93 175.59C184.08 175.73 184.06 175.92 184.08 175.96C184.08 176.12 184.13 176.36 184.14 176.41C184.2 176.7 184.2 176.8 184.2 176.85C184.2 177.09 184.07 177.19 184.06 177.23C183.97 177.33 183.85 177.38 183.69 177.38C183.45 177.26 183.32 177.19 183.3 177.18ZM188.59 176.94C188.45 176.93 188.37 176.93 188.34 176.93C188.26 176.93 188.02 176.95 187.64 177L187.73 180.09L187.74 180.32C187.74 180.47 187.74 180.56 187.74 180.58C187.76 181.72 187.25 181.61 187.2 181.72C186.99 181.72 186.87 181.6 186.83 181.59C186.68 181.45 186.69 181.28 186.68 181.24C186.68 181.04 186.69 180.71 186.69 180.65C186.7 180.38 186.71 180.19 186.71 180.06C186.65 178.23 186.61 177.22 186.6 177.01C186.23 177 185.56 176.94 185.45 176.93C184.99 176.87 185.04 176.46 184.99 176.41C184.99 176.18 185.11 176.07 185.12 176.03C185.22 175.93 185.34 175.88 185.49 175.88C186.15 175.93 186.51 175.97 186.58 175.97C186.58 175.7 186.55 175.33 186.55 175.26C186.53 174.82 186.53 174.68 186.53 174.62C186.53 174.4 186.66 174.29 186.68 174.25C186.83 174.11 187.01 174.12 187.05 174.11C187.52 174.11 187.55 174.8 187.6 174.88C187.61 175 187.61 175.16 187.61 175.34L187.6 175.64C187.6 175.83 187.6 175.94 187.6 175.96C188.25 175.88 188.27 175.89 188.34 175.88C188.89 175.88 188.98 175.92 189.05 175.93C189.36 176.03 189.33 176.37 189.36 176.42C189.36 176.65 189.23 176.77 189.22 176.81C189.13 176.9 189.01 176.95 188.85 176.95C188.7 176.94 188.61 176.94 188.59 176.94ZM194.11 181.5C193.87 181.28 193.79 181.16 193.75 181.12C193.25 181.4 192.96 181.49 192.87 181.53C192.49 181.67 192.31 181.66 192.24 181.67C191.03 181.67 190.64 181.05 190.46 180.98C189.94 180.34 189.99 179.2 189.94 179C189.94 177.74 190.72 177.06 190.81 176.85C191.67 175.95 192.67 176.04 192.88 175.95C193.33 175.95 193.79 176.16 193.89 176.18C194.6 176.47 194.53 176.82 194.6 176.89C194.6 177.02 194.5 177.11 194.49 177.14C194.44 177.34 194.42 177.73 194.41 177.79C194.39 178.24 194.38 178.84 194.38 178.95C194.38 179.6 194.46 179.87 194.47 179.97C194.53 180.2 194.76 180.8 194.8 180.89C194.82 180.95 194.87 181.04 194.92 181.16C194.94 181.22 194.95 181.25 194.95 181.25C194.95 181.46 194.82 181.56 194.81 181.6C194.71 181.69 194.6 181.73 194.46 181.73C194.25 181.59 194.13 181.52 194.11 181.5ZM193.41 177.63C193.44 177.36 193.49 177.12 193.49 177.07C193.31 176.96 193.19 176.93 193.16 176.92C193.03 176.87 192.96 176.87 192.94 176.87C192.14 176.87 191.69 177.47 191.55 177.53C190.96 178.19 191.02 178.89 190.96 179.04C190.96 179.9 191.24 180.2 191.27 180.33C191.57 180.75 192.08 180.71 192.17 180.75C192.67 180.75 192.94 180.59 193.03 180.58C193.21 180.47 193.49 180.22 193.55 180.18C193.44 179.26 193.38 178.57 193.38 178.11C193.4 177.82 193.41 177.66 193.41 177.63ZM201.97 181.37C201.91 180.99 201.85 180.45 201.79 179.75C201.68 178.78 201.62 178.25 201.61 178.14C201.56 177.77 201.45 177.5 201.43 177.43C201.25 176.96 201.09 177.01 201.05 176.96C200.85 176.96 200.4 177.26 200.33 177.29C199.83 177.6 199.74 177.73 199.67 177.77C199.66 178.1 199.67 178.43 199.69 178.75C199.79 179.59 199.84 180.06 199.85 180.15C199.95 180.97 199.94 181.38 199.95 181.51C199.95 181.74 199.82 181.85 199.81 181.89C199.66 182.03 199.48 182.02 199.44 182.03C199.21 182.03 199.1 181.9 199.07 181.89C198.93 181.74 198.95 181.55 198.93 181.51C198.93 180.88 198.81 179.84 198.8 179.65C198.67 178.41 198.68 177.97 198.67 177.78C198.67 177.23 198.53 177.01 198.52 176.92C198.27 177.03 198.03 177.21 197.78 177.46C197.41 177.87 197.2 178.1 197.16 178.15C197.08 178.27 196.93 178.45 196.9 178.48C196.9 178.79 196.84 179.32 196.84 179.41C196.79 180.01 196.79 180.22 196.79 180.31C196.79 180.46 196.82 180.7 196.83 180.74C196.88 181.02 196.87 181.11 196.88 181.15C196.88 181.36 196.74 181.47 196.72 181.5C196.57 181.66 196.39 181.64 196.35 181.66C195.77 181.66 195.82 180.45 195.77 180.32C195.77 180 195.81 179.48 195.82 179.39C195.88 178.76 195.87 178.54 195.88 178.45C195.88 178.17 195.83 177.7 195.83 177.62C195.78 177.07 195.78 176.87 195.78 176.78C195.78 175.61 196.25 175.72 196.31 175.61C196.52 175.61 196.64 175.77 196.68 175.78C196.85 175.96 196.83 176.13 196.85 176.17C196.85 176.26 196.82 176.44 196.82 176.47C196.8 176.61 196.8 176.72 196.8 176.79C196.8 177.12 196.81 177.3 196.81 177.34C197.08 176.78 197.52 176.44 197.6 176.34C198.13 175.88 198.41 175.92 198.5 175.88C199.32 175.88 199.52 176.61 199.63 176.69C199.91 176.32 200.24 176.18 200.31 176.13C200.7 175.93 201.12 175.95 201.21 175.93C202.09 175.93 202.28 176.77 202.4 176.87C202.46 177.06 202.6 178.19 202.62 178.34C202.77 179.23 202.96 181.02 202.99 181.32C203 181.53 202.86 181.64 202.85 181.68C202.74 181.78 202.62 181.83 202.47 181.83C202.17 181.55 202.01 181.4 201.97 181.37ZM205.21 181.41C205.2 182.9 205.2 183.73 205.2 183.9C205.2 184.13 205.07 184.24 205.05 184.27C204.92 184.42 204.72 184.41 204.69 184.42C204.47 184.42 204.36 184.29 204.32 184.27C204.23 184.18 204.18 184.05 204.18 183.9L204.2 181.82C204.2 180.57 204.2 179.87 204.2 179.73C204.18 178.97 204.16 178.27 204.11 177.65C204.07 177.02 204.05 176.67 204.04 176.6C204.04 176.22 204.16 176.03 204.18 175.97C204.33 175.66 204.58 175.69 204.62 175.66C204.83 175.66 204.93 175.79 204.97 175.81C205.1 175.95 205.09 176.12 205.1 176.16C205.1 176.2 205.09 176.31 205.09 176.33C205.06 176.49 205.06 176.6 205.05 176.63C205.5 176.32 205.83 176.22 205.92 176.17C206.33 176.01 206.64 176.03 206.72 176.01C207.78 176.01 208.12 176.87 208.28 176.96C208.67 177.71 208.63 178.74 208.67 178.94C208.67 180.07 208.12 180.61 208.06 180.79C207.64 181.32 207.07 181.58 206.35 181.58L205.21 181.41ZM205.85 177.26C205.57 177.42 205.23 177.76 205.16 177.82C205.22 179 205.21 180.06 205.22 180.31C205.79 180.52 206.24 180.5 206.35 180.52C207.01 180.52 207.25 180.08 207.35 180.03C207.65 179.62 207.62 179.05 207.65 178.94C207.65 177.99 207.44 177.67 207.42 177.52C207.26 177.21 207.03 177.06 206.72 177.06C206.2 177.18 205.91 177.25 205.85 177.26ZM212.96 177.18C212.88 177.04 212.84 176.67 212.83 176.62C212.43 176.72 211.74 176.95 211.62 176.98C210.79 177.32 210.86 177.72 210.78 177.81C210.93 177.87 211.06 177.88 211.09 177.89C212.29 178.11 212.69 178.42 212.87 178.48C213.71 179.02 213.63 179.91 213.71 180.07C213.71 180.91 213.06 181.22 212.98 181.35C212.37 181.7 211.6 181.67 211.44 181.7C210.75 181.7 210.27 181.49 210.14 181.47C209.34 181.18 209.42 180.74 209.34 180.66C209.34 180.45 209.48 180.33 209.49 180.29C209.66 180.14 209.83 180.15 209.87 180.14C210.04 180.14 210.24 180.36 210.29 180.39C210.41 180.5 210.79 180.57 210.85 180.59C211.2 180.65 211.38 180.64 211.44 180.65C211.88 180.65 212.14 180.56 212.21 180.54C212.69 180.39 212.64 180.11 212.69 180.07C212.69 179.59 212.36 179.27 211.7 179.11C211.38 179.03 211.2 178.99 211.16 178.98C210.47 178.84 210.28 178.66 210.18 178.63C209.75 178.34 209.8 177.84 209.75 177.75C209.75 176.66 210.68 176.36 210.79 176.2C211.1 176.06 211.69 175.9 211.79 175.87C212.47 175.67 212.67 175.57 212.77 175.53C212.98 175.44 213.19 175.45 213.23 175.44C213.45 175.44 213.56 175.57 213.6 175.59C213.74 175.73 213.73 175.92 213.74 175.96C213.74 176.12 213.8 176.36 213.81 176.41C213.87 176.7 213.86 176.8 213.87 176.85C213.87 177.09 213.74 177.19 213.72 177.23C213.63 177.33 213.51 177.38 213.36 177.38C213.12 177.26 212.99 177.19 212.96 177.18Z" id="a1rOiHJ12A"/></defs><g><g><g><use xlink:href="#d2dNIBBzp" opacity="1" fill="#ffffff" fill-opacity="1"/><g><use xlink:href="#d2dNIBBzp" opacity="1" fill-opacity="0" stroke="#000000" stroke-width="1" stroke-opacity="0"/></g></g><g><use xlink:href="#cY1zsxO6X" opacity="1" fill="#000000" fill-opacity="0"/><g><use xlink:href="#cY1zsxO6X" opacity="1" fill-opacity="0" stroke="#000000" stroke-width="1" stroke-opacity="0"/></g></g><g><use xlink:href="#i1O0kijMei" opacity="1" fill="#000000" fill-opacity="0"/><g><use xlink:href="#i1O0kijMei" opacity="1" fill-opacity="0" stroke="#595959" stroke-width="1" stroke-opacity="1"/></g></g><g><use xlink:href="#a1Rq5ezoYM" opacity="1" fill="#c9daf8" fill-opacity="1"/><g><use xlink:href="#a1Rq5ezoYM" opacity="1" fill-opacity="0" stroke="#000000" stroke-width="1" stroke-opacity="0"/></g></g><g><use xlink:href="#azighp9VL" opacity="1" fill="#000000" fill-opacity="0"/><g><use xlink:href="#azighp9VL" opacity="1" fill-opacity="0" stroke="#595959" stroke-width="1" stroke-opacity="1"/></g></g><g><use xlink:href="#a3eRWlIKN2" opacity="1" fill="#d9ead3" fill-opacity="1"/><g><use xlink:href="#a3eRWlIKN2" opacity="1" fill-opacity="0" stroke="#000000" stroke-width="1" stroke-opacity="0"/></g></g><g><use xlink:href="#b1jH1yvpp" opacity="1" fill="#000000" fill-opacity="0"/><g><use xlink:href="#b1jH1yvpp" opacity="1" fill-opacity="0" stroke="#595959" stroke-width="1" stroke-opacity="1"/></g></g><g><use xlink:href="#koVfGPXGF" opacity="1" fill="#d9d2e9" fill-opacity="1"/><g><use xlink:href="#koVfGPXGF" opacity="1" fill-opacity="0" stroke="#000000" stroke-width="1" stroke-opacity="0"/></g></g><g><use xlink:href="#ha8FdvUnz" opacity="1" fill="#000000" fill-opacity="0"/><g><use xlink:href="#ha8FdvUnz" opacity="1" fill-opacity="0" stroke="#595959" stroke-width="1" stroke-opacity="1"/></g></g><g><use xlink:href="#b8XQ5BvI" opacity="1" fill="#000000" fill-opacity="0"/><g><use xlink:href="#b8XQ5BvI" opacity="1" fill-opacity="0" stroke="#000000" stroke-width="1" stroke-opacity="0"/></g></g><g><use xlink:href="#f5q400yHCF" opacity="1" fill="#000000" fill-opacity="1"/><g><use xlink:href="#f5q400yHCF" opacity="1" fill-opacity="0" stroke="#000000" stroke-width="1" stroke-opacity="0"/></g></g><g><use xlink:href="#a1tt1O0lNq" opacity="1" fill="#fff2cc" fill-opacity="1"/><g><use xlink:href="#a1tt1O0lNq" opacity="1" fill-opacity="0" stroke="#000000" stroke-width="1" stroke-opacity="0"/></g></g><g><use xlink:href="#d1yPTGJ3qO" opacity="1" fill="#000000" fill-opacity="0"/><g><use xlink:href="#d1yPTGJ3qO" opacity="1" fill-opacity="0" stroke="#595959" stroke-width="1" stroke-opacity="1"/></g></g><g><use xlink:href="#b3sHyp3rGV" opacity="1" fill="#d9d2e9" fill-opacity="1"/><g><use xlink:href="#b3sHyp3rGV" opacity="1" fill-opacity="0" stroke="#000000" stroke-width="1" stroke-opacity="0"/></g></g><g><use xlink:href="#a3O1qnVxv" opacity="1" fill="#000000" fill-opacity="0"/><g><use xlink:href="#a3O1qnVxv" opacity="1" fill-opacity="0" stroke="#595959" stroke-width="1" stroke-opacity="1"/></g></g><g><use xlink:href="#a936PhAPk" opacity="1" fill="#000000" fill-opacity="0"/><g><use xlink:href="#a936PhAPk" opacity="1" fill-opacity="0" stroke="#000000" stroke-width="1" stroke-opacity="0"/></g></g><g><use xlink:href="#chk77Jx3R" opacity="1" fill="#000000" fill-opacity="1"/><g><use xlink:href="#chk77Jx3R" opacity="1" fill-opacity="0" stroke="#000000" stroke-width="1" stroke-opacity="0"/></g></g><g><use xlink:href="#b2TtoFi8b4" opacity="1" fill="#fff2cc" fill-opacity="1"/><g><use xlink:href="#b2TtoFi8b4" opacity="1" fill-opacity="0" stroke="#000000" stroke-width="1" stroke-opacity="0"/></g></g><g><use xlink:href="#bhB9MCNZa" opacity="1" fill="#000000" fill-opacity="0"/><g><use xlink:href="#bhB9MCNZa" opacity="1" fill-opacity="0" stroke="#595959" stroke-width="1" stroke-opacity="1"/></g></g><g><use xlink:href="#ew1IPVoAl" opacity="1" fill="#000000" fill-opacity="0"/><g><use xlink:href="#ew1IPVoAl" opacity="1" fill-opacity="0" stroke="#000000" stroke-width="1" stroke-opacity="0"/></g></g><g><use xlink:href="#cduOCGvr8" opacity="1" fill="#000000" fill-opacity="1"/><g><use xlink:href="#cduOCGvr8" opacity="1" fill-opacity="0" stroke="#000000" stroke-width="1" stroke-opacity="0"/></g></g><g><use xlink:href="#c7towvcwwZ" opacity="1" fill="#000000" fill-opacity="0"/><g><use xlink:href="#c7towvcwwZ" opacity="1" fill-opacity="0" stroke="#000000" stroke-width="1" stroke-opacity="0"/></g></g><g><use xlink:href="#bzuEAnkn4" opacity="1" fill="#000000" fill-opacity="1"/><g><use xlink:href="#bzuEAnkn4" opacity="1" fill-opacity="0" stroke="#000000" stroke-width="1" stroke-opacity="0"/></g></g><g><use xlink:href="#e2s2O6yDRL" opacity="1" fill="#000000" fill-opacity="0"/><g><use xlink:href="#e2s2O6yDRL" opacity="1" fill-opacity="0" stroke="#000000" stroke-width="1" stroke-opacity="0"/></g></g><g><use xlink:href="#a1rOiHJ12A" opacity="1" fill="#000000" fill-opacity="1"/><g><use xlink:href="#a1rOiHJ12A" opacity="1" fill-opacity="0" stroke="#000000" stroke-width="1" stroke-opacity="0"/></g></g></g></g></svg>